# xmcd
#
# Track frame offsets:
#	150
#	13504
#	25398
#	38354
#	50599
#	59894
#	71440
#	86031
#	96179
#	107292
#	119947
#	132609
#	147674
#	162388
#	179232
#	192383
#	207614
#	219799
#	231124
#	242026
#	253116
#
# Disc length: 3515 seconds
#
# Revision: 0
# Processed by: cddbd v1.5.2PL0 Copyright (c) Steve Scherf et al.
# Submitted via: FairStars CD Ripper 1.90
#
DISCID=480db915
DTITLE=Reader's Digest - Various Artists - God's Country - Disc 3
DYEAR=1998
DGENRE=Gospel
TTITLE0=When I Sing For Him
TTITLE1=Then I Met The Master
TTITLE2=Rock Of Ages
TTITLE3=God Walks These Hills With Me
TTITLE4=Bringing In The Sheaves
TTITLE5=Let's All Go Down To The River
TTITLE6=Why Me Lord
TTITLE7=His Hands
TTITLE8=Stand By Me
TTITLE9=Just As I Am
TTITLE10=May The Good Lord Bless And Keep You
TTITLE11=Whispering hope
TTITLE12=What Difference You've Made In My Life
TTITLE13=An Evening Prayer
TTITLE14=Golden Streets Of Glory
TTITLE15=Where He Leads Me (I Will Follow)
TTITLE16=Vaya Con Dios (May God Be With You)
TTITLE17=The Impossible Dream (The Quest)
TTITLE18=He
TTITLE19=Climb Every Mountain
TTITLE20=The Lord's Prayer
EXTD=
EXTT0=
EXTT1=
EXTT2=
EXTT3=
EXTT4=
EXTT5=
EXTT6=
EXTT7=
EXTT8=
EXTT9=
EXTT10=
EXTT11=
EXTT12=
EXTT13=
EXTT14=
EXTT15=
EXTT16=
EXTT17=
EXTT18=
EXTT19=
EXTT20=
PLAYORDER=
